nColumns=19
nRows=55
DataType=double
version=3
OpenSimVersion=4.1
endheader
time	ground_force_1_vx	ground_force_1_vy	ground_force_1_vz	ground_force_1_px	ground_force_1_py	ground_force_1_pz	ground_force_1_mx	ground_force_1_my	ground_force_1_mz	ground_force_2_vx	ground_force_2_vy	ground_force_2_vz	ground_force_2_px	ground_force_2_py	ground_force_2_pz	ground_force_2_mx	ground_force_2_my	ground_force_2_mz
0.005	-7.22787	354.291	3.25202	0.693603	0	-0.837122	296.48	14.0823	-151.008	23.1563	407.524	2.92754	0.441759	0	-0.833921	340.074	-26.0484	180.1
0.01	-7.88419	353.114	2.82552	0.693652	0	-0.837226	295.791	14.6082	-150.729	22.9762	409.167	3.73843	0.44173	0	-0.834078	341.29	-26.5833	180.714
0.015	-7.79801	351.813	2.90709	0.693736	0	-0.837416	294.72	14.9383	-150.026	23.3493	410.258	3.04742	0.441687	0	-0.834324	342.327	-26.595	181.177
0.02	-7.43497	350.432	2.91244	0.693822	0	-0.837627	293.355	14.6338	-149.351	24.0292	412.366	3.13256	0.441651	0	-0.834535	344.15	-27.1972	182.078
0.025	-7.26552	349.986	2.44722	0.693906	0	-0.837857	293.528	14.0691	-148.991	24.369	414.376	3.34473	0.441624	0	-0.834693	345.505	-27.5317	182.809
0.03	-7.28311	349.057	3.23564	0.693985	0	-0.838109	292.176	14.126	-148.643	24.4831	414.41	2.67307	0.441605	0	-0.834786	346.241	-27.4866	183.14
0.035	-7.39582	346.806	2.55976	0.694057	0	-0.838382	291.087	14.3231	-147.784	24.0881	416.508	3.46979	0.441592	0	-0.834809	347.54	-27.3199	183.849
0.04	-7.84223	347.212	3.18259	0.694124	0	-0.838676	291.028	14.8541	-148	24.3064	417.398	2.99255	0.441581	0	-0.834765	348.749	-27.2248	184.339
0.045	-7.45589	345.344	2.86762	0.694189	0	-0.838988	289.455	14.5438	-147.142	24.4356	419.142	3.09197	0.441569	0	-0.834664	349.584	-27.469	185.128
0.05	-7.2781	344.742	2.69614	0.694257	0	-0.839312	289.265	14.3595	-146.766	24.5349	420.161	2.5653	0.441552	0	-0.834524	350.748	-27.4829	185.541
0.055	-7.25292	344.814	3.40684	0.694334	0	-0.83964	289.392	14.3394	-146.773	24.9379	421.364	2.96601	0.441529	0	-0.834367	351.549	-28.0227	186.084
0.06	-7.41977	343.445	2.72677	0.694423	0	-0.839965	289.157	14.4818	-146.175	24.6253	422.122	2.5156	0.441499	0	-0.834216	352.411	-27.5328	186.414
0.065	-7.61543	341.917	2.9419	0.694526	0	-0.840282	287.274	14.8384	-145.523	24.3119	423.022	2.41642	0.441461	0	-0.834094	352.709	-27.1717	186.673
0.07	-7.44761	341.366	3.0125	0.694644	0	-0.840591	286.71	14.6966	-145.279	24.2893	423.723	2.57345	0.441418	0	-0.834016	353.231	-27.0285	187.025
0.075	-7.2128	340.326	2.6735	0.694774	0	-0.840893	286.69	14.224	-144.853	24.6168	424.094	2.34929	0.441373	0	-0.833991	353.483	-27.5426	187.134
0.08	-7.07936	338.947	3.48959	0.694912	0	-0.841195	284.61	14.3051	-144.062	24.7015	425.142	2.42761	0.441326	0	-0.834019	354.509	-27.5862	187.687
0.085	-7.29466	337.977	3.19171	0.695053	0	-0.841502	284.219	14.4816	-143.633	24.5913	426.152	2.39676	0.44128	0	-0.834092	355.435	-27.4051	188.062
0.09	-7.22637	336.088	3.10896	0.695189	0	-0.841815	283.229	14.5837	-142.799	24.3514	427.315	1.56231	0.441235	0	-0.834195	356.822	-26.8173	188.432
0.095	-7.76272	334.9	3.82685	0.695318	0	-0.842133	281.956	15.3811	-142.265	24.1168	427.727	2.4689	0.44119	0	-0.834312	356.547	-26.9529	188.749
0.1	-7.70614	332.532	3.41032	0.695436	0	-0.842446	280.21	14.869	-141.141	24.546	428.741	1.8279	0.441145	0	-0.834427	358.209	-27.09	189.165
0.105	-7.37089	331.29	4.44269	0.695543	0	-0.842741	278.889	14.7556	-140.556	24.9847	429.818	2.25783	0.441098	0	-0.834528	358.899	-27.8067	189.602
0.11	-7.24021	328.57	3.74959	0.695641	0	-0.843001	276.948	14.8195	-139.576	25.2198	430.949	1.86865	0.441047	0	-0.834606	359.302	-27.8317	190.105
0.115	-7.23424	327.831	3.81841	0.695731	0	-0.843209	276.693	14.7576	-139.083	25.4559	432.675	1.83944	0.440993	0	-0.834657	361.275	-27.9563	190.782
0.12	-7.83269	325.707	4.49486	0.695818	0	-0.843351	274.489	15.5165	-138.321	25.3787	433.822	1.7191	0.440936	0	-0.834682	361.709	-27.6846	191.225
0.125	-7.83853	323.834	3.43064	0.695903	0	-0.843422	273.521	15.3315	-137.436	25.4536	435	2.08317	0.440877	0	-0.834683	363.127	-28.0041	191.928
0.13	-7.2909	323.637	4.61446	0.695988	0	-0.843428	272.886	14.8565	-137.145	26.1354	437.291	1.77385	0.440819	0	-0.834664	365.42	-28.4005	192.808
0.135	-7.09084	321.394	4.23694	0.696072	0	-0.843386	270.949	14.5802	-136.255	26.3617	439.146	2.24481	0.440764	0	-0.83463	365.912	-28.8096	193.461
0.14	-6.94892	319.631	3.91051	0.696153	0	-0.843322	269.407	14.578	-135.472	26.7323	440.423	1.36324	0.440714	0	-0.834583	367.47	-28.8822	194.051
0.145	-7.15331	319.347	4.33905	0.696228	0	-0.843268	269.487	14.6329	-135.339	26.7278	442.3	1.85693	0.44067	0	-0.834531	369.499	-29.076	194.856
0.15	-7.54822	318.43	4.00856	0.696293	0	-0.843256	268.553	15.279	-135.032	26.7093	443.873	2.17365	0.440632	0	-0.834478	370.675	-28.9589	195.555
0.155	-7.03707	316.479	3.75349	0.696344	0	-0.843311	267.081	14.73	-134.152	27.0765	444.999	1.69744	0.440599	0	-0.834432	371.206	-29.1817	196.126
0.16	-6.69222	315.78	3.70439	0.69638	0	-0.843447	266.693	14.0315	-133.786	27.3189	446.594	1.72235	0.440568	0	-0.8344	372.876	-29.3077	196.686
0.165	-6.21657	314.525	3.93889	0.696398	0	-0.843661	264.529	13.8216	-133.236	27.7327	447.316	1.7632	0.44054	0	-0.834389	373.218	-29.6793	197.169
0.17	-6.2545	314.1	4.18401	0.696399	0	-0.84393	264.852	14.2382	-133.078	27.8044	447.805	2.23017	0.440513	0	-0.834401	373.508	-30.0444	197.442
0.175	-6.62911	313.517	3.70437	0.696384	0	-0.844215	264.807	14.0775	-132.783	27.4787	449.644	1.91549	0.440488	0	-0.83443	375.072	-29.6741	197.988
0.18	-6.5142	313.233	4.32298	0.696357	0	-0.844464	264.028	14.1267	-132.721	27.4883	450.28	2.05029	0.440466	0	-0.834464	375.316	-29.4951	198.318
0.185	-6.27316	312.734	5.93885	0.696322	0	-0.844625	263.835	15.8276	-132.444	27.3186	451.3	2.08387	0.44045	0	-0.834486	376.396	-29.5122	198.64
0.19	-5.9069	310.8	4.33382	0.696283	0	-0.844653	264.476	13.6483	-131.956	27.4612	451.999	3.72927	0.440441	0	-0.834471	377.194	-30.8344	199.019
0.195	-5.05307	311.843	9.10641	0.696243	0	-0.844522	262.632	14.5335	-131.856	27.6702	451.793	3.84376	0.440438	0	-0.834396	377.951	-30.5141	199.064
0.2	-7.07056	308.534	6.983	0.696205	0	-0.844227	260.702	16.2759	-131.198	27.6846	453.584	5.59052	0.440441	0	-0.834243	377.568	-30.9628	199.722
0.205	-7.14571	309.381	5.67713	0.696166	0	-0.843789	261.27	15.6766	-131.289	27.6956	452.52	3.18674	0.440449	0	-0.834002	378.452	-30.6456	199.461
0.21	-6.14987	309.181	5.20428	0.696124	0	-0.843244	260.222	14.7828	-130.824	27.3798	455.55	4.85383	0.44046	0	-0.833673	379.275	-30.5831	200.626
0.215	-6.76056	308.324	2.77894	0.696077	0	-0.842639	260.055	14.5175	-130.68	27.1169	454.492	2.16335	0.440471	0	-0.833267	378.447	-29.6798	200.22
0.22	-6.36454	309.653	5.70918	0.696019	0	-0.842014	260.599	14.4864	-131.044	27.5975	455.889	1.87994	0.440483	0	-0.832801	380.262	-29.9072	200.611
0.225	-6.87357	307.506	5.22121	0.695949	0	-0.841401	258.262	14.5962	-130.784	28.5462	456.943	2.7584	0.440494	0	-0.832301	379.63	-30.5345	201.395
0.23	-6.14922	307.428	4.71887	0.695862	0	-0.840812	258.156	14.9235	-130.261	28.2464	455.519	1.68249	0.440505	0	-0.831792	379.23	-30.2943	200.889
0.235	-6.98169	307.724	4.8729	0.695758	0	-0.840242	259.156	15.2222	-130.703	27.3862	457.992	1.90229	0.440516	0	-0.831296	380.536	-29.6707	201.556
0.24	-6.8051	306.005	3.97165	0.695637	0	-0.839671	256.788	14.0849	-130.003	27.372	457.286	1.04813	0.440527	0	-0.830832	379.815	-29.1322	201.312
0.245	-6.07208	304.899	4.81995	0.695499	0	-0.839072	255.498	13.8189	-129.32	28.0762	457.514	1.11455	0.44054	0	-0.83041	380.204	-29.6927	201.531
0.25	-5.88307	304.716	4.49723	0.695346	0	-0.838418	256.183	13.9799	-129.357	28.404	457.829	2.13748	0.440555	0	-0.830035	379.742	-30.5093	201.799
0.255	-6.2523	304.518	4.1697	0.695179	0	-0.837688	255.253	14.1283	-129.526	27.9532	457.638	0.747629	0.440574	0	-0.829701	380.451	-29.296	201.725
0.26	-6.39582	303.191	4.01893	0.694998	0	-0.836876	253.45	14.2412	-129.015	27.4733	458.6	0.938684	0.440596	0	-0.829398	379.734	-29.2627	202.066
0.265	-5.82203	303.821	2.90262	0.694806	0	-0.835987	254.148	13.1678	-129.086	27.9475	459.426	0.423646	0.440625	0	-0.829109	380.935	-29.4986	202.372
0.27	-5.8229	303.298	2.70886	0.694605	0	-0.835041	253.026	12.4937	-128.911	28.0887	460.22	0.856087	0.440661	0	-0.828813	381.631	-29.3482	202.782
0.275	-5.7051	302.477	2.52436	0.694396	0	-0.834067	252.325	13.2066	-128.899	27.7909	459.786	0.637128	0.440706	0	-0.828488	380.351	-29.1064	202.719
